Coordinates
version=1
nRows=23
nColumns=28
inDegrees=yes

Units are S.I. units (second, meters, Newtons, ...)
Angles are in degrees.

endheader
time	pelvis_tilt	pelvis_list	pelvis_rotation	pelvis_tx	pelvis_ty	pelvis_tz	hip_flexion_r	hip_adduction_r	hip_rotation_r	knee_angle_r	ankle_angle_r	subtalar_angle_r	mtp_angle_r	hip_flexion_l	hip_adduction_l	hip_rotation_l	knee_angle_l	socket_flexion	socket_adduction	socket_rotation	socket_tx	socket_ty	socket_tz	foot_flex	lumbar_extension	lumbar_bending	lumbar_rotation
      0.27083333	      1.44621605	      3.09516949	     -3.16739649	     -0.36231323	      0.98380050	      0.26149623	     14.38202658	     -4.53043695	      4.46182758	    -64.51788483	    -11.84821803	     -7.41485287	     14.03958068	     11.39055715	      4.70980067	     -9.12457676	    -30.27146005	     -5.45836869	     -4.93576224	      9.72960119	      0.00000000	     -0.00443855	      0.00000000	      4.31713046	     -7.84115252	     -5.30164592	     -3.08916986
      0.27500000	      1.49853310	      2.91227929	     -3.01336778	     -0.35645023	      0.98506388	      0.26113617	     15.04733630	     -4.32683401	      4.25192814	    -64.45864876	    -10.91021525	     -7.72450378	     14.00043548	     10.75963571	      4.55470111	     -9.14115951	    -29.97255180	     -5.47828245	     -4.97273028	      9.96236802	      0.00000000	     -0.00426568	      0.00000000	      4.34508774	     -7.91266692	     -5.06071849	     -3.18123372
      0.27916667	      1.58052665	      2.67173512	     -2.91461657	     -0.35048322	      0.98642384	      0.26098449	     15.62768544	     -4.01046232	      4.11771632	    -64.28572915	     -9.95444606	     -7.99100853	     13.86983178	     10.03153324	      4.30731672	     -9.20663349	    -29.53908440	     -5.42935660	     -4.97329764	     10.24804939	      0.00000000	     -0.00425626	      0.00000000	      4.40056642	     -7.95783941	     -4.80041366	     -3.38863640
      0.28333333	      1.61212036	      2.58952641	     -2.83419546	     -0.34478418	      0.98766157	      0.26062501	     16.32230373	     -3.94044641	      3.98894338	    -64.07198123	     -9.74451401	     -8.06682213	     13.85563401	      9.49893033	      4.26720434	     -9.18976232	    -29.43981677	     -5.61900442	     -5.02144395	     10.32315658	      0.00000000	     -0.00368350	      0.00000000	      4.44405293	     -8.04449919	     -4.74744591	     -3.42413259
      0.28750000	      1.67187738	      2.22757084	     -2.67582365	     -0.33877659	      0.98894146	      0.26049379	     16.84904409	     -3.47559519	      3.76240222	    -63.79608909	     -8.22606957	     -8.60880425	     13.67794569	      8.74145473	      3.86506412	     -9.31258912	    -28.80908567	     -5.38762924	     -5.00097581	     10.76528592	      0.00000000	     -0.00404078	      0.00000000	      4.45016944	     -8.03766387	     -4.26887274	     -3.74926785
      0.29166667	      1.69690289	      2.18045625	     -2.59070789	     -0.33321550	      0.99015042	      0.26014073	     17.52209579	     -3.41918100	      3.67326738	    -63.47113747	     -8.10113883	     -8.66059346	     13.66039122	      8.25345680	      3.86378767	     -9.29445792	    -28.74364294	     -5.57952358	     -5.05626694	     10.81133684	      0.00000000	     -0.00332682	      0.00000000	      4.49805465	     -8.13278324	     -4.25076872	     -3.77231812
      0.29583333	      1.93923496	      1.70658380	     -2.50691913	     -0.32694290	      0.99173129	      0.26011756	     17.72999594	     -2.81998274	      3.48317619	    -62.96076948	     -6.76391293	     -9.31075772	     12.90802149	      7.12308991	      3.34024264	     -9.53936080	    -27.69615180	     -5.12597299	     -4.99843753	     11.36659402	      0.00000000	     -0.00407312	      0.00000000	      4.48938954	     -8.32624376	     -3.62761213	     -4.34137010
      0.30000000	      1.95295486	      1.67258597	     -2.43190211	     -0.32145583	      0.99281742	      0.25979478	     18.39242583	     -2.78666546	      3.38348935	    -62.54949388	     -6.62005138	     -9.37935598	     12.88590616	      6.66281775	      3.34881526	     -9.51997645	    -27.64437451	     -5.30968867	     -5.05263922	     11.40238837	      0.00000000	     -0.00340235	      0.00000000	      4.52560474	     -8.42572475	     -3.63743527	     -4.34707403
      0.30416667	      2.44750361	      1.28003935	     -2.30369346	     -0.31505473	      0.99485432	      0.25970784	     18.21595146	     -2.30279823	      3.15729577	    -61.84708308	     -5.30894320	    -10.29025948	     10.68820199	      5.13994898	      2.97122148	     -9.63436916	    -26.19390609	     -4.62578343	     -4.92606938	     11.87278215	      0.00000000	     -0.00403118	      0.00000000	      4.45788350	     -8.91548688	     -3.17852171	     -4.69075019
      0.30833333	      2.43954773	      1.25156529	     -2.24806473	     -0.30964164	      0.99579514	      0.25944149	     18.87998360	     -2.27645247	      3.05348189	    -61.35753202	     -5.13788004	    -10.36009371	     10.67535579	      4.71635605	      2.98133672	     -9.62498122	    -26.14795839	     -4.80650998	     -4.97779197	     11.89126837	      0.00000000	     -0.00338527	      0.00000000	      4.49990084	     -9.00283723	     -3.16935971	     -4.69681317
      0.31250000	      2.33641281	      0.99746877	     -1.97672863	     -0.30362484	      0.99668649	      0.25898372	     19.42209540	     -2.02297665	      2.71719130	    -60.68290977	     -3.89910470	    -10.95563286	     10.58023728	      4.26244175	      2.72664060	     -9.61702650	    -25.79250718	     -4.75344151	     -5.02509156	     12.15227351	      0.00000000	     -0.00332893	      0.00000000	      4.39116189	     -8.77463340	     -2.80059098	     -4.81138507
      0.31666667	      2.31738235	      0.95699116	     -1.92701209	     -0.29827710	      0.99747011	      0.25875146	     20.07294946	     -1.97447600	      2.62039891	    -60.12112891	     -3.73326463	    -11.05024789	     10.54906525	      3.85100458	      2.72429111	     -9.59486719	    -25.72648306	     -4.91030483	     -5.08500085	     12.19216595	      0.00000000	     -0.00279911	      0.00000000	      4.45057789	     -8.88239597	     -2.78331829	     -4.84111316
      0.32083333	      2.24375819	      0.50525905	     -1.58774880	     -0.29221717	      0.99837602	      0.25836524	     20.45571818	     -1.47346528	      2.21932263	    -59.23233489	     -2.56478866	    -11.96215776	     10.16450549	      3.30184840	      2.22855096	     -9.55838204	    -25.14731558	     -4.66023072	     -5.06797719	     12.57186339	      0.00000000	     -0.00315717	      0.00000000	      4.43442094	     -8.69201920	     -2.19771726	     -5.21942421
      0.32500000	      2.21489437	      0.48980973	     -1.53985904	     -0.28687945	      0.99908809	      0.25816800	     21.05977676	     -1.44839872	      2.14441783	    -58.54136378	     -2.42774643	    -12.07369129	     10.11108303	      2.90754697	      2.25797613	     -9.54961452	    -25.07950373	     -4.81567946	     -5.14987977	     12.58285930	      0.00000000	     -0.00259994	      0.00000000	      4.46595853	     -8.80142629	     -2.19141319	     -5.25409514
      0.32916667	      2.59958707	     -0.07301974	     -1.21154349	     -0.28059237	      1.00090715	      0.25795792	     20.72340520	     -0.74537039	      1.82680375	    -57.24296893	     -2.06706441	    -13.91801944	      7.66974454	      1.65035156	      1.66298168	     -9.41075362	    -23.90243561	     -4.24363135	     -4.96812467	     12.86844948	      0.00000000	     -0.00305299	      0.00000000	      4.45201208	     -9.15991874	     -1.56771869	     -6.05798990
      0.33333333	      2.48099659	     -0.24227628	     -0.99213728	     -0.27487486	      1.00144566	      0.25756734	     21.23652464	     -0.57498087	      1.59859874	    -56.35338036	     -1.32473287	    -14.26185435	      7.36312480	      1.26882163	      1.51130228	     -9.39247570	    -23.58964379	     -4.21702755	     -5.03673493	     13.03113302	      0.00000000	     -0.00293065	      0.00000000	      4.43392434	     -9.06994659	     -1.30208093	     -6.09347818
      0.33750000	      2.47495168	     -0.50067800	     -0.79061651	     -0.26915439	      1.00220372	      0.25721111	     21.54141393	     -0.27941153	      1.40444010	    -55.26457620	     -0.87576765	    -14.86674118	      6.62748491	      0.72744518	      1.26832102	     -9.27236831	    -23.16672209	     -4.09653825	     -5.07303779	     13.20713305	      0.00000000	     -0.00287477	      0.00000000	      4.44835813	     -9.02789450	     -0.99302560	     -6.36077594
      0.34166667	      2.40989236	     -0.53051837	     -0.64160938	     -0.26358570	      1.00282884	      0.25695569	     21.95641510	     -0.24317950	      1.29775283	    -54.21455298	     -0.50729806	    -15.17040144	      6.46384857	      0.36347345	      1.27703795	     -9.24565423	    -23.03040000	     -4.15774034	     -5.17388182	     13.26277408	      0.00000000	     -0.00227032	      0.00000000	      4.42910657	     -8.98905713	     -0.97457291	     -6.40672501
      0.34583333	      2.61230577	     -0.89937980	     -0.35618177	     -0.25780555	      1.00388168	      0.25665482	     21.90146485	      0.19219324	      1.03663684	    -52.92765841	     -0.22867233	    -16.49999540	      4.45142786	     -0.50460398	      0.90719409	     -9.04046138	    -22.22579421	     -3.78249471	     -5.07442646	     13.35291358	      0.00000000	     -0.00251056	      0.00000000	      4.45408043	     -9.27394898	     -0.53321369	     -6.88744168
      0.35000000	      2.49735055	     -0.91144213	     -0.22519626	     -0.25230012	      1.00426394	      0.25637694	     22.33889994	      0.21243214	      0.96730104	    -51.80206835	      0.13807640	    -16.67971635	      4.38487517	     -0.79200074	      0.94303992	     -9.03511139	    -22.12799967	     -3.84663083	     -5.20257231	     13.38878780	      0.00000000	     -0.00196093	      0.00000000	      4.45335588	     -9.21147486	     -0.51963552	     -6.89310047
      0.35416667	      2.37510452	     -1.14533793	      0.03766632	     -0.24650572	      1.00455119	      0.25600075	     22.65158485	      0.42384966	      0.69144588	    -50.52978153	      0.77997887	    -17.19510655	      4.16610284	     -1.15022148	      0.70349069	     -8.93692030	    -21.82997983	     -3.77553894	     -5.27259317	     13.60696566	      0.00000000	     -0.00194314	      0.00000000	      4.47206224	     -8.98222114	     -0.26327509	     -7.02615106
      0.35833333	      2.32413181	     -1.49154750	      0.36758739	     -0.24070115	      1.00497888	      0.25555380	     22.79946673	      0.78482424	      0.41986771	    -49.09042858	      1.08460734	    -18.01143417	      3.52296606	     -1.62413205	      0.34086871	     -8.80734050	    -21.36842599	     -3.59449031	     -5.28383391	     13.74237159	      0.00000000	     -0.00211563	      0.00000000	      4.50980003	     -8.98901153	      0.22673431	     -7.43395398
      0.36250000	      2.23031735	     -1.45370485	      0.48440258	     -0.23532982	      1.00521411	      0.25535001	     23.13471383	      0.75453513	      0.39754522	    -47.80036195	      1.33962007	    -18.23115032	      3.41260705	     -1.89969756	      0.43188218	     -8.80202735	    -21.30140045	     -3.63925945	     -5.41474375	     13.72261519	      0.00000000	     -0.00152856	      0.00000000	      4.52910821	     -8.98051039	      0.15810697	     -7.46435293
